<?xml version="1.0" encoding="UTF-8"?>
<svg xmlns="http://www.w3.org/2000/svg" xmlns:xlink="http://www.w3.org/1999/xlink" width="854" height="480" viewBox="0 0 854 480">
<defs>
<g>
<g id="glyph-0-0">
<path d="M 7.828125 -6.25 C 7.679688 -6.988281 7.382812 -7.535156 6.9375 -7.890625 C 6.5 -8.253906 5.890625 -8.4375 5.109375 -8.4375 C 4.078125 -8.4375 3.304688 -8.101562 2.796875 -7.4375 C 2.296875 -6.78125 2.046875 -5.78125 2.046875 -4.4375 C 2.046875 -3.132812 2.304688 -2.144531 2.828125 -1.46875 C 3.347656 -0.800781 4.113281 -0.46875 5.125 -0.46875 C 5.582031 -0.46875 6.015625 -0.519531 6.421875 -0.625 C 6.828125 -0.738281 7.21875 -0.910156 7.59375 -1.140625 L 7.59375 -3.4375 L 5.90625 -3.4375 L 5.90625 -4.0625 L 8.796875 -4.0625 L 8.796875 -0.75 C 8.265625 -0.4375 7.691406 -0.203125 7.078125 -0.046875 C 6.472656 0.0976562 5.820312 0.171875 5.125 0.171875 C 3.78125 0.171875 2.703125 -0.242188 1.890625 -1.078125 C 1.085938 -1.921875 0.6875 -3.039062 0.6875 -4.4375 C 0.6875 -5.851562 1.09375 -6.976562 1.90625 -7.8125 C 2.71875 -8.644531 3.804688 -9.0625 5.171875 -9.0625 C 5.679688 -9.0625 6.207031 -9.003906 6.75 -8.890625 C 7.300781 -8.773438 7.878906 -8.597656 8.484375 -8.359375 L 8.484375 -6.25 Z "/>
</g>
<g id="glyph-0-1">
<path d="M 5.84375 -6.359375 L 5.84375 -4.765625 L 5.203125 -4.765625 C 5.179688 -5.078125 5.09375 -5.3125 4.9375 -5.46875 C 4.789062 -5.625 4.566406 -5.703125 4.265625 -5.703125 C 3.722656 -5.703125 3.304688 -5.515625 3.015625 -5.140625 C 2.734375 -4.765625 2.59375 -4.226562 2.59375 -3.53125 L 2.59375 -0.625 L 3.859375 -0.625 L 3.859375 0 L 0.5 0 L 0.5 -0.625 L 1.484375 -0.625 L 1.484375 -5.71875 L 0.4375 -5.71875 L 0.4375 -6.34375 L 2.59375 -6.34375 L 2.59375 -5.21875 C 2.800781 -5.65625 3.070312 -5.976562 3.40625 -6.1875 C 3.75 -6.40625 4.164062 -6.515625 4.65625 -6.515625 C 4.832031 -6.515625 5.019531 -6.5 5.21875 -6.46875 C 5.414062 -6.445312 5.625 -6.410156 5.84375 -6.359375 Z "/>
</g>
<g id="glyph-0-2">
<path d="M 4.859375 -2 L 4.859375 -3.328125 L 3.453125 -3.328125 C 2.898438 -3.328125 2.488281 -3.207031 2.21875 -2.96875 C 1.957031 -2.738281 1.828125 -2.382812 1.828125 -1.90625 C 1.828125 -1.457031 1.960938 -1.101562 2.234375 -0.84375 C 2.503906 -0.59375 2.867188 -0.46875 3.328125 -0.46875 C 3.785156 -0.46875 4.15625 -0.609375 4.4375 -0.890625 C 4.71875 -1.171875 4.859375 -1.539062 4.859375 -2 Z M 5.953125 -3.96875 L 5.953125 -0.625 L 6.9375 -0.625 L 6.9375 0 L 4.859375 0 L 4.859375 -0.6875 C 4.617188 -0.394531 4.335938 -0.175781 4.015625 -0.03125 C 3.703125 0.101562 3.332031 0.171875 2.90625 0.171875 C 2.195312 0.171875 1.632812 -0.015625 1.21875 -0.390625 C 0.8125 -0.765625 0.609375 -1.269531 0.609375 -1.90625 C 0.609375 -2.5625 0.84375 -3.066406 1.3125 -3.421875 C 1.789062 -3.785156 2.460938 -3.96875 3.328125 -3.96875 L 4.859375 -3.96875 L 4.859375 -4.40625 C 4.859375 -4.882812 4.710938 -5.253906 4.421875 -5.515625 C 4.128906 -5.785156 3.71875 -5.921875 3.1875 -5.921875 C 2.75 -5.921875 2.398438 -5.820312 2.140625 -5.625 C 1.890625 -5.425781 1.734375 -5.132812 1.671875 -4.75 L 1.09375 -4.75 L 1.09375 -6.03125 C 1.476562 -6.1875 1.847656 -6.304688 2.203125 -6.390625 C 2.566406 -6.472656 2.921875 -6.515625 3.265625 -6.515625 C 4.140625 -6.515625 4.804688 -6.296875 5.265625 -5.859375 C 5.722656 -5.421875 5.953125 -4.789062 5.953125 -3.96875 Z "/>
</g>
<g id="glyph-0-3">
<path d="M 6.40625 -0.625 L 7.46875 -0.625 L 7.46875 0 L 5.3125 0 L 5.3125 -0.984375 C 5.101562 -0.585938 4.832031 -0.296875 4.5 -0.109375 C 4.164062 0.078125 3.753906 0.171875 3.265625 0.171875 C 2.484375 0.171875 1.84375 -0.132812 1.34375 -0.75 C 0.851562 -1.375 0.609375 -2.179688 0.609375 -3.171875 C 0.609375 -4.171875 0.851562 -4.976562 1.34375 -5.59375 C 1.84375 -6.207031 2.484375 -6.515625 3.265625 -6.515625 C 3.753906 -6.515625 4.164062 -6.421875 4.5 -6.234375 C 4.832031 -6.046875 5.101562 -5.753906 5.3125 -5.359375 L 5.3125 -8.65625 L 4.28125 -8.65625 L 4.28125 -9.28125 L 6.40625 -9.28125 Z M 5.3125 -2.859375 L 5.3125 -3.484375 C 5.3125 -4.242188 5.164062 -4.820312 4.875 -5.21875 C 4.582031 -5.625 4.160156 -5.828125 3.609375 -5.828125 C 3.035156 -5.828125 2.601562 -5.601562 2.3125 -5.15625 C 2.03125 -4.71875 1.890625 -4.054688 1.890625 -3.171875 C 1.890625 -2.296875 2.03125 -1.632812 2.3125 -1.1875 C 2.601562 -0.738281 3.035156 -0.515625 3.609375 -0.515625 C 4.160156 -0.515625 4.582031 -0.710938 4.875 -1.109375 C 5.164062 -1.515625 5.3125 -2.097656 5.3125 -2.859375 Z "/>
</g>
<g id="glyph-0-4">
<path d="M 1.1875 -8.3125 C 1.1875 -8.488281 1.253906 -8.644531 1.390625 -8.78125 C 1.523438 -8.914062 1.6875 -8.984375 1.875 -8.984375 C 2.050781 -8.984375 2.207031 -8.914062 2.34375 -8.78125 C 2.476562 -8.644531 2.546875 -8.488281 2.546875 -8.3125 C 2.546875 -8.125 2.476562 -7.960938 2.34375 -7.828125 C 2.207031 -7.703125 2.050781 -7.640625 1.875 -7.640625 C 1.6875 -7.640625 1.523438 -7.703125 1.390625 -7.828125 C 1.253906 -7.960938 1.1875 -8.125 1.1875 -8.3125 Z M 2.59375 -0.625 L 3.625 -0.625 L 3.625 0 L 0.4375 0 L 0.4375 -0.625 L 1.484375 -0.625 L 1.484375 -5.703125 L 0.4375 -5.703125 L 0.4375 -6.34375 L 2.59375 -6.34375 Z "/>
</g>
<g id="glyph-0-5">
<path d="M 6.625 -3.0625 L 1.890625 -3.0625 L 1.890625 -3 C 1.890625 -2.144531 2.050781 -1.5 2.375 -1.0625 C 2.695312 -0.632812 3.171875 -0.421875 3.796875 -0.421875 C 4.273438 -0.421875 4.671875 -0.546875 4.984375 -0.796875 C 5.296875 -1.046875 5.507812 -1.421875 5.625 -1.921875 L 6.515625 -1.921875 C 6.335938 -1.222656 6.015625 -0.695312 5.546875 -0.34375 C 5.078125 0 4.457031 0.171875 3.6875 0.171875 C 2.757812 0.171875 2.015625 -0.128906 1.453125 -0.734375 C 0.890625 -1.347656 0.609375 -2.160156 0.609375 -3.171875 C 0.609375 -4.171875 0.882812 -4.976562 1.4375 -5.59375 C 1.988281 -6.207031 2.710938 -6.515625 3.609375 -6.515625 C 4.566406 -6.515625 5.300781 -6.21875 5.8125 -5.625 C 6.332031 -5.039062 6.601562 -4.1875 6.625 -3.0625 Z M 5.328125 -3.6875 C 5.304688 -4.425781 5.148438 -4.984375 4.859375 -5.359375 C 4.566406 -5.734375 4.148438 -5.921875 3.609375 -5.921875 C 3.109375 -5.921875 2.710938 -5.734375 2.421875 -5.359375 C 2.128906 -4.984375 1.953125 -4.425781 1.890625 -3.6875 Z "/>
</g>
<g id="glyph-0-6">
<path d="M 0.5 0 L 0.5 -0.625 L 1.484375 -0.625 L 1.484375 -5.703125 L 0.4375 -5.703125 L 0.4375 -6.34375 L 2.59375 -6.34375 L 2.59375 -5.21875 C 2.789062 -5.644531 3.050781 -5.96875 3.375 -6.1875 C 3.695312 -6.40625 4.078125 -6.515625 4.515625 -6.515625 C 5.210938 -6.515625 5.722656 -6.3125 6.046875 -5.90625 C 6.378906 -5.507812 6.546875 -4.882812 6.546875 -4.03125 L 6.546875 -0.625 L 7.53125 -0.625 L 7.53125 0 L 4.5 0 L 4.5 -0.625 L 5.453125 -0.625 L 5.453125 -3.6875 C 5.453125 -4.457031 5.351562 -4.988281 5.15625 -5.28125 C 4.96875 -5.570312 4.632812 -5.71875 4.15625 -5.71875 C 3.644531 -5.71875 3.253906 -5.53125 2.984375 -5.15625 C 2.722656 -4.78125 2.59375 -4.238281 2.59375 -3.53125 L 2.59375 -0.625 L 3.546875 -0.625 L 3.546875 0 Z "/>
</g>
<g id="glyph-0-7">
<path d="M 1.3125 -5.703125 L 0.359375 -5.703125 L 0.359375 -6.34375 L 1.3125 -6.34375 L 1.3125 -8.3125 L 2.421875 -8.3125 L 2.421875 -6.34375 L 4.484375 -6.34375 L 4.484375 -5.703125 L 2.421875 -5.703125 L 2.421875 -1.671875 C 2.421875 -1.140625 2.472656 -0.796875 2.578125 -0.640625 C 2.679688 -0.492188 2.875 -0.421875 3.15625 -0.421875 C 3.4375 -0.421875 3.640625 -0.503906 3.765625 -0.671875 C 3.898438 -0.835938 3.972656 -1.109375 3.984375 -1.484375 L 4.8125 -1.484375 C 4.78125 -0.910156 4.625 -0.488281 4.34375 -0.21875 C 4.0625 0.0390625 3.632812 0.171875 3.0625 0.171875 C 2.425781 0.171875 1.972656 0.03125 1.703125 -0.25 C 1.441406 -0.53125 1.3125 -1.003906 1.3125 -1.671875 Z "/>
</g>
<g id="glyph-0-8">
</g>
<g id="glyph-0-9">
<path d="M 3.015625 -0.625 L 4.125 -0.625 C 5.28125 -0.625 6.164062 -0.953125 6.78125 -1.609375 C 7.40625 -2.273438 7.71875 -3.226562 7.71875 -4.46875 C 7.71875 -5.695312 7.410156 -6.632812 6.796875 -7.28125 C 6.179688 -7.9375 5.289062 -8.265625 4.125 -8.265625 L 3.015625 -8.265625 Z M 0.671875 0 L 0.671875 -0.625 L 1.8125 -0.625 L 1.8125 -8.265625 L 0.671875 -8.265625 L 0.671875 -8.90625 L 4.21875 -8.90625 C 5.75 -8.90625 6.941406 -8.515625 7.796875 -7.734375 C 8.660156 -6.953125 9.09375 -5.863281 9.09375 -4.46875 C 9.09375 -3.0625 8.660156 -1.960938 7.796875 -1.171875 C 6.941406 -0.390625 5.75 0 4.21875 0 Z "/>
</g>
<g id="glyph-0-10">
<path d="M 0.6875 -0.359375 L 0.6875 -1.828125 L 1.3125 -1.828125 C 1.332031 -1.359375 1.484375 -1.003906 1.765625 -0.765625 C 2.046875 -0.535156 2.457031 -0.421875 3 -0.421875 C 3.5 -0.421875 3.875 -0.507812 4.125 -0.6875 C 4.382812 -0.875 4.515625 -1.144531 4.515625 -1.5 C 4.515625 -1.78125 4.421875 -2.003906 4.234375 -2.171875 C 4.046875 -2.347656 3.648438 -2.53125 3.046875 -2.71875 L 2.25 -3 C 1.707031 -3.164062 1.3125 -3.378906 1.0625 -3.640625 C 0.820312 -3.910156 0.703125 -4.25 0.703125 -4.65625 C 0.703125 -5.238281 0.910156 -5.691406 1.328125 -6.015625 C 1.753906 -6.347656 2.347656 -6.515625 3.109375 -6.515625 C 3.441406 -6.515625 3.789062 -6.46875 4.15625 -6.375 C 4.53125 -6.289062 4.910156 -6.164062 5.296875 -6 L 5.296875 -4.625 L 4.671875 -4.625 C 4.648438 -5.03125 4.503906 -5.347656 4.234375 -5.578125 C 3.972656 -5.804688 3.609375 -5.921875 3.140625 -5.921875 C 2.679688 -5.921875 2.332031 -5.835938 2.09375 -5.671875 C 1.851562 -5.515625 1.734375 -5.273438 1.734375 -4.953125 C 1.734375 -4.679688 1.820312 -4.460938 2 -4.296875 C 2.175781 -4.140625 2.535156 -3.976562 3.078125 -3.8125 L 3.953125 -3.546875 C 4.546875 -3.359375 4.972656 -3.125 5.234375 -2.84375 C 5.503906 -2.5625 5.640625 -2.203125 5.640625 -1.765625 C 5.640625 -1.160156 5.410156 -0.6875 4.953125 -0.34375 C 4.492188 0 3.863281 0.171875 3.0625 0.171875 C 2.644531 0.171875 2.238281 0.125 1.84375 0.03125 C 1.457031 -0.0507812 1.070312 -0.179688 0.6875 -0.359375 Z "/>
</g>
<g id="glyph-0-11">
<path d="M 6.28125 -1.90625 C 6.125 -1.226562 5.820312 -0.710938 5.375 -0.359375 C 4.9375 -0.00390625 4.367188 0.171875 3.671875 0.171875 C 2.753906 0.171875 2.015625 -0.128906 1.453125 -0.734375 C 0.890625 -1.347656 0.609375 -2.160156 0.609375 -3.171875 C 0.609375 -4.191406 0.890625 -5.003906 1.453125 -5.609375 C 2.015625 -6.210938 2.753906 -6.515625 3.671875 -6.515625 C 4.078125 -6.515625 4.476562 -6.46875 4.875 -6.375 C 5.269531 -6.28125 5.671875 -6.140625 6.078125 -5.953125 L 6.078125 -4.328125 L 5.4375 -4.328125 C 5.351562 -4.878906 5.171875 -5.28125 4.890625 -5.53125 C 4.609375 -5.789062 4.207031 -5.921875 3.6875 -5.921875 C 3.09375 -5.921875 2.644531 -5.691406 2.34375 -5.234375 C 2.039062 -4.773438 1.890625 -4.085938 1.890625 -3.171875 C 1.890625 -2.253906 2.039062 -1.566406 2.34375 -1.109375 C 2.644531 -0.648438 3.09375 -0.421875 3.6875 -0.421875 C 4.15625 -0.421875 4.53125 -0.539062 4.8125 -0.78125 C 5.101562 -1.03125 5.300781 -1.40625 5.40625 -1.90625 Z "/>
</g>
</g>
</defs>
<g fill="rgb(100%, 100%, 100%)" fill-opacity="1">
<use xlink:href="#glyph-0-0" x="30" y="31.345703"/>
<use xlink:href="#glyph-0-1" x="40" y="31.345703"/>
<use xlink:href="#glyph-0-2" x="46" y="31.345703"/>
<use xlink:href="#glyph-0-3" x="53" y="31.345703"/>
<use xlink:href="#glyph-0-4" x="61" y="31.345703"/>
<use xlink:href="#glyph-0-5" x="65" y="31.345703"/>
<use xlink:href="#glyph-0-6" x="72" y="31.345703"/>
<use xlink:href="#glyph-0-7" x="80" y="31.345703"/>
<use xlink:href="#glyph-0-8" x="85" y="31.345703"/>
<use xlink:href="#glyph-0-9" x="89" y="31.345703"/>
<use xlink:href="#glyph-0-5" x="99" y="31.345703"/>
<use xlink:href="#glyph-0-10" x="106" y="31.345703"/>
<use xlink:href="#glyph-0-11" x="112" y="31.345703"/>
<use xlink:href="#glyph-0-5" x="119" y="31.345703"/>
<use xlink:href="#glyph-0-6" x="126" y="31.345703"/>
<use xlink:href="#glyph-0-7" x="134" y="31.345703"/>
</g>
</svg>
