<?xml version="1.0" encoding="UTF-8"?>
<svg xmlns="http://www.w3.org/2000/svg" xmlns:xlink="http://www.w3.org/1999/xlink" width="854" height="480" viewBox="0 0 854 480">
<defs>
<g>
<g id="glyph-0-0">
<path d="M 1 -4.3125 L 0.5625 -4.3125 L 0.5625 -5.328125 C 0.832031 -5.472656 1.101562 -5.582031 1.375 -5.65625 C 1.65625 -5.738281 1.929688 -5.78125 2.203125 -5.78125 C 2.785156 -5.78125 3.25 -5.632812 3.59375 -5.34375 C 3.9375 -5.0625 4.109375 -4.671875 4.109375 -4.171875 C 4.109375 -3.617188 3.71875 -2.957031 2.9375 -2.1875 C 2.882812 -2.125 2.84375 -2.082031 2.8125 -2.0625 L 1.375 -0.625 L 3.75 -0.625 L 3.75 -1.328125 L 4.1875 -1.328125 L 4.1875 0 L 0.53125 0 L 0.53125 -0.421875 L 2.25 -2.125 C 2.625 -2.507812 2.894531 -2.859375 3.0625 -3.171875 C 3.226562 -3.492188 3.3125 -3.828125 3.3125 -4.171875 C 3.3125 -4.554688 3.207031 -4.859375 3 -5.078125 C 2.800781 -5.296875 2.53125 -5.40625 2.1875 -5.40625 C 1.820312 -5.40625 1.539062 -5.3125 1.34375 -5.125 C 1.144531 -4.945312 1.03125 -4.675781 1 -4.3125 Z "/>
</g>
<g id="glyph-0-1">
<path d="M 1.109375 0 L 1.109375 -0.40625 L 2.09375 -0.40625 L 2.09375 -5.125 L 0.953125 -4.375 L 0.953125 -4.875 L 2.328125 -5.78125 L 2.859375 -5.78125 L 2.859375 -0.40625 L 3.84375 -0.40625 L 3.84375 0 Z "/>
</g>
</g>
</defs>
<g fill="rgb(100%, 100%, 100%)" fill-opacity="1">
<use xlink:href="#glyph-0-0" x="30" y="27.21875"/>
<use xlink:href="#glyph-0-1" x="35" y="27.21875"/>
</g>
</svg>
