<?xml version="1.0" encoding="UTF-8"?>
<svg xmlns="http://www.w3.org/2000/svg" xmlns:xlink="http://www.w3.org/1999/xlink" width="854" height="480" viewBox="0 0 854 480">
<defs>
<g>
<g id="glyph-0-0">
<path d="M 1.171875 -4.515625 L 2.609375 -0.78125 L 4.03125 -4.515625 L 3.484375 -4.515625 L 3.484375 -4.859375 L 4.921875 -4.859375 L 4.921875 -4.515625 L 4.4375 -4.515625 L 2.703125 0 L 2.140625 0 L 0.421875 -4.515625 L -0.0625 -4.515625 L -0.0625 -4.859375 L 1.703125 -4.859375 L 1.703125 -4.515625 Z "/>
</g>
<g id="glyph-0-1">
<path d="M 3.34375 1.3125 L 3.34375 1.578125 L 0 1.578125 L 0 1.3125 Z "/>
</g>
<g id="glyph-0-2">
<path d="M 3.40625 0.75 L 3.40625 1.09375 L 3.203125 1.09375 C 2.660156 1.09375 2.296875 1.007812 2.109375 0.84375 C 1.929688 0.6875 1.84375 0.367188 1.84375 -0.109375 L 1.84375 -0.953125 C 1.84375 -1.273438 1.785156 -1.5 1.671875 -1.625 C 1.554688 -1.757812 1.34375 -1.828125 1.03125 -1.828125 L 0.828125 -1.828125 L 0.828125 -2.15625 L 1.03125 -2.15625 C 1.34375 -2.15625 1.554688 -2.21875 1.671875 -2.34375 C 1.785156 -2.476562 1.84375 -2.707031 1.84375 -3.03125 L 1.84375 -3.875 C 1.84375 -4.351562 1.929688 -4.671875 2.109375 -4.828125 C 2.296875 -4.984375 2.660156 -5.0625 3.203125 -5.0625 L 3.40625 -5.0625 L 3.40625 -4.734375 L 3.1875 -4.734375 C 2.882812 -4.734375 2.6875 -4.679688 2.59375 -4.578125 C 2.5 -4.484375 2.453125 -4.285156 2.453125 -3.984375 L 2.453125 -3.046875 C 2.453125 -2.703125 2.394531 -2.457031 2.28125 -2.3125 C 2.175781 -2.164062 1.984375 -2.0625 1.703125 -2 C 1.984375 -1.925781 2.175781 -1.816406 2.28125 -1.671875 C 2.394531 -1.523438 2.453125 -1.28125 2.453125 -0.9375 L 2.453125 0 C 2.453125 0.300781 2.5 0.5 2.59375 0.59375 C 2.6875 0.695312 2.882812 0.75 3.1875 0.75 Z "/>
</g>
<g id="glyph-0-3">
<path d="M 0.375 -0.1875 L 0.375 -1 L 0.71875 -1 C 0.726562 -0.738281 0.804688 -0.546875 0.953125 -0.421875 C 1.109375 -0.296875 1.335938 -0.234375 1.640625 -0.234375 C 1.910156 -0.234375 2.113281 -0.28125 2.25 -0.375 C 2.394531 -0.476562 2.46875 -0.628906 2.46875 -0.828125 C 2.46875 -0.972656 2.414062 -1.09375 2.3125 -1.1875 C 2.207031 -1.28125 1.988281 -1.378906 1.65625 -1.484375 L 1.234375 -1.640625 C 0.929688 -1.734375 0.710938 -1.847656 0.578125 -1.984375 C 0.441406 -2.128906 0.375 -2.316406 0.375 -2.546875 C 0.375 -2.859375 0.488281 -3.101562 0.71875 -3.28125 C 0.957031 -3.46875 1.28125 -3.5625 1.6875 -3.5625 C 1.875 -3.5625 2.066406 -3.535156 2.265625 -3.484375 C 2.472656 -3.441406 2.679688 -3.375 2.890625 -3.28125 L 2.890625 -2.515625 L 2.546875 -2.515625 C 2.535156 -2.742188 2.457031 -2.921875 2.3125 -3.046875 C 2.164062 -3.171875 1.96875 -3.234375 1.71875 -3.234375 C 1.457031 -3.234375 1.265625 -3.1875 1.140625 -3.09375 C 1.015625 -3.007812 0.953125 -2.878906 0.953125 -2.703125 C 0.953125 -2.554688 1 -2.4375 1.09375 -2.34375 C 1.1875 -2.257812 1.382812 -2.171875 1.6875 -2.078125 L 2.15625 -1.9375 C 2.488281 -1.832031 2.722656 -1.703125 2.859375 -1.546875 C 3.003906 -1.398438 3.078125 -1.207031 3.078125 -0.96875 C 3.078125 -0.632812 2.953125 -0.375 2.703125 -0.1875 C 2.453125 0 2.109375 0.09375 1.671875 0.09375 C 1.441406 0.09375 1.21875 0.0664062 1 0.015625 C 0.789062 -0.0234375 0.582031 -0.09375 0.375 -0.1875 Z "/>
</g>
<g id="glyph-0-4">
<path d="M 2.65625 -1.09375 L 2.65625 -1.828125 L 1.890625 -1.828125 C 1.585938 -1.828125 1.363281 -1.757812 1.21875 -1.625 C 1.070312 -1.5 1 -1.304688 1 -1.046875 C 1 -0.796875 1.070312 -0.597656 1.21875 -0.453125 C 1.363281 -0.316406 1.566406 -0.25 1.828125 -0.25 C 2.078125 -0.25 2.273438 -0.328125 2.421875 -0.484375 C 2.578125 -0.640625 2.65625 -0.84375 2.65625 -1.09375 Z M 3.25 -2.15625 L 3.25 -0.34375 L 3.78125 -0.34375 L 3.78125 0 L 2.65625 0 L 2.65625 -0.375 C 2.519531 -0.21875 2.363281 -0.0976562 2.1875 -0.015625 C 2.019531 0.0546875 1.820312 0.09375 1.59375 0.09375 C 1.207031 0.09375 0.898438 -0.00390625 0.671875 -0.203125 C 0.441406 -0.410156 0.328125 -0.691406 0.328125 -1.046875 C 0.328125 -1.398438 0.457031 -1.675781 0.71875 -1.875 C 0.976562 -2.070312 1.34375 -2.171875 1.8125 -2.171875 L 2.65625 -2.171875 L 2.65625 -2.40625 C 2.65625 -2.664062 2.570312 -2.867188 2.40625 -3.015625 C 2.25 -3.160156 2.03125 -3.234375 1.75 -3.234375 C 1.507812 -3.234375 1.316406 -3.175781 1.171875 -3.0625 C 1.035156 -2.957031 0.945312 -2.800781 0.90625 -2.59375 L 0.59375 -2.59375 L 0.59375 -3.296875 C 0.800781 -3.378906 1.003906 -3.441406 1.203125 -3.484375 C 1.398438 -3.535156 1.59375 -3.5625 1.78125 -3.5625 C 2.257812 -3.5625 2.625 -3.441406 2.875 -3.203125 C 3.125 -2.960938 3.25 -2.613281 3.25 -2.15625 Z "/>
</g>
<g id="glyph-0-5">
<path d="M 0.71875 -3.109375 L 0.1875 -3.109375 L 0.1875 -3.46875 L 0.71875 -3.46875 L 0.71875 -4.53125 L 1.328125 -4.53125 L 1.328125 -3.46875 L 2.453125 -3.46875 L 2.453125 -3.109375 L 1.328125 -3.109375 L 1.328125 -0.921875 C 1.328125 -0.617188 1.351562 -0.425781 1.40625 -0.34375 C 1.457031 -0.269531 1.5625 -0.234375 1.71875 -0.234375 C 1.875 -0.234375 1.988281 -0.273438 2.0625 -0.359375 C 2.132812 -0.453125 2.171875 -0.601562 2.171875 -0.8125 L 2.625 -0.8125 C 2.613281 -0.5 2.53125 -0.269531 2.375 -0.125 C 2.21875 0.0195312 1.984375 0.09375 1.671875 0.09375 C 1.328125 0.09375 1.082031 0.0195312 0.9375 -0.125 C 0.789062 -0.28125 0.71875 -0.546875 0.71875 -0.921875 Z "/>
</g>
<g id="glyph-0-6">
<path d="M 0.828125 0.75 L 1.0625 0.75 C 1.363281 0.75 1.5625 0.703125 1.65625 0.609375 C 1.75 0.515625 1.796875 0.3125 1.796875 0 L 1.796875 -0.9375 C 1.796875 -1.28125 1.847656 -1.523438 1.953125 -1.671875 C 2.054688 -1.816406 2.253906 -1.925781 2.546875 -2 C 2.265625 -2.0625 2.066406 -2.164062 1.953125 -2.3125 C 1.847656 -2.457031 1.796875 -2.703125 1.796875 -3.046875 L 1.796875 -3.984375 C 1.796875 -4.296875 1.75 -4.5 1.65625 -4.59375 C 1.5625 -4.6875 1.363281 -4.734375 1.0625 -4.734375 L 0.828125 -4.734375 L 0.828125 -5.0625 L 1.046875 -5.0625 C 1.578125 -5.0625 1.929688 -4.984375 2.109375 -4.828125 C 2.296875 -4.671875 2.390625 -4.351562 2.390625 -3.875 L 2.390625 -3.03125 C 2.390625 -2.707031 2.445312 -2.476562 2.5625 -2.34375 C 2.6875 -2.21875 2.898438 -2.15625 3.203125 -2.15625 L 3.40625 -2.15625 L 3.40625 -1.828125 L 3.203125 -1.828125 C 2.898438 -1.828125 2.6875 -1.757812 2.5625 -1.625 C 2.445312 -1.5 2.390625 -1.273438 2.390625 -0.953125 L 2.390625 -0.109375 C 2.390625 0.367188 2.296875 0.6875 2.109375 0.84375 C 1.929688 1.007812 1.578125 1.09375 1.046875 1.09375 L 0.828125 1.09375 Z "/>
</g>
</g>
</defs>
<g fill="rgb(100%, 100%, 100%)" fill-opacity="1">
<use xlink:href="#glyph-0-0" x="30" y="26.188477"/>
<use xlink:href="#glyph-0-1" x="35" y="26.188477"/>
<use xlink:href="#glyph-0-2" x="38" y="26.188477"/>
<use xlink:href="#glyph-0-3" x="42" y="26.188477"/>
<use xlink:href="#glyph-0-4" x="45" y="26.188477"/>
<use xlink:href="#glyph-0-5" x="49" y="26.188477"/>
<use xlink:href="#glyph-0-6" x="52" y="26.188477"/>
</g>
</svg>
