<?xml version="1.0" encoding="UTF-8"?>
<svg xmlns="http://www.w3.org/2000/svg" xmlns:xlink="http://www.w3.org/1999/xlink" width="854" height="480" viewBox="0 0 854 480">
<defs>
<g>
<g id="glyph-0-0">
<path d="M 1.9375 -0.203125 C 2.238281 -0.203125 2.46875 -0.367188 2.625 -0.703125 C 2.78125 -1.046875 2.859375 -1.550781 2.859375 -2.21875 C 2.859375 -2.894531 2.78125 -3.398438 2.625 -3.734375 C 2.46875 -4.066406 2.238281 -4.234375 1.9375 -4.234375 C 1.632812 -4.234375 1.40625 -4.066406 1.25 -3.734375 C 1.101562 -3.398438 1.03125 -2.894531 1.03125 -2.21875 C 1.03125 -1.550781 1.101562 -1.046875 1.25 -0.703125 C 1.40625 -0.367188 1.632812 -0.203125 1.9375 -0.203125 Z M 1.9375 0.09375 C 1.457031 0.09375 1.082031 -0.109375 0.8125 -0.515625 C 0.539062 -0.921875 0.40625 -1.488281 0.40625 -2.21875 C 0.40625 -2.945312 0.539062 -3.515625 0.8125 -3.921875 C 1.082031 -4.328125 1.457031 -4.53125 1.9375 -4.53125 C 2.425781 -4.53125 2.804688 -4.328125 3.078125 -3.921875 C 3.347656 -3.515625 3.484375 -2.945312 3.484375 -2.21875 C 3.484375 -1.488281 3.347656 -0.921875 3.078125 -0.515625 C 2.804688 -0.109375 2.425781 0.09375 1.9375 0.09375 Z "/>
</g>
<g id="glyph-0-1">
<path d="M 0.578125 -0.3125 C 0.578125 -0.425781 0.613281 -0.519531 0.6875 -0.59375 C 0.757812 -0.664062 0.851562 -0.703125 0.96875 -0.703125 C 1.082031 -0.703125 1.175781 -0.664062 1.25 -0.59375 C 1.332031 -0.519531 1.375 -0.425781 1.375 -0.3125 C 1.375 -0.195312 1.332031 -0.0976562 1.25 -0.015625 C 1.175781 0.0546875 1.082031 0.09375 0.96875 0.09375 C 0.851562 0.09375 0.757812 0.0546875 0.6875 -0.015625 C 0.613281 -0.0976562 0.578125 -0.195312 0.578125 -0.3125 Z "/>
</g>
<g id="glyph-0-2">
<path d="M 0.59375 -4.265625 C 0.820312 -4.347656 1.039062 -4.410156 1.25 -4.453125 C 1.46875 -4.503906 1.671875 -4.53125 1.859375 -4.53125 C 2.296875 -4.53125 2.632812 -4.4375 2.875 -4.25 C 3.125 -4.0625 3.25 -3.800781 3.25 -3.46875 C 3.25 -3.195312 3.164062 -2.972656 3 -2.796875 C 2.832031 -2.617188 2.59375 -2.5 2.28125 -2.4375 C 2.644531 -2.382812 2.925781 -2.25 3.125 -2.03125 C 3.332031 -1.820312 3.4375 -1.546875 3.4375 -1.203125 C 3.4375 -0.785156 3.296875 -0.460938 3.015625 -0.234375 C 2.734375 -0.015625 2.332031 0.09375 1.8125 0.09375 C 1.570312 0.09375 1.34375 0.0664062 1.125 0.015625 C 0.90625 -0.0351562 0.6875 -0.113281 0.46875 -0.21875 L 0.46875 -1.078125 L 0.796875 -1.078125 C 0.816406 -0.796875 0.910156 -0.578125 1.078125 -0.421875 C 1.253906 -0.273438 1.5 -0.203125 1.8125 -0.203125 C 2.125 -0.203125 2.363281 -0.289062 2.53125 -0.46875 C 2.707031 -0.644531 2.796875 -0.890625 2.796875 -1.203125 C 2.796875 -1.546875 2.707031 -1.804688 2.53125 -1.984375 C 2.351562 -2.171875 2.085938 -2.265625 1.734375 -2.265625 L 1.453125 -2.265625 L 1.453125 -2.5625 L 1.609375 -2.5625 C 1.953125 -2.5625 2.207031 -2.632812 2.375 -2.78125 C 2.550781 -2.925781 2.640625 -3.144531 2.640625 -3.4375 C 2.640625 -3.695312 2.566406 -3.894531 2.421875 -4.03125 C 2.285156 -4.164062 2.082031 -4.234375 1.8125 -4.234375 C 1.539062 -4.234375 1.332031 -4.171875 1.1875 -4.046875 C 1.039062 -3.921875 0.953125 -3.734375 0.921875 -3.484375 L 0.59375 -3.484375 Z "/>
</g>
</g>
</defs>
<g fill="rgb(53.72549%, 65.098039%, 70.588235%)" fill-opacity="1">
<use xlink:href="#glyph-0-0" x="30" y="25.671875"/>
<use xlink:href="#glyph-0-1" x="34" y="25.671875"/>
<use xlink:href="#glyph-0-2" x="36" y="25.671875"/>
</g>
</svg>
